<svg width="31" height="31" viewBox="0 0 31 31" fill="none" xmlns="http://www.w3.org/2000/svg">
<path d="M26.4743 8.76017H19.8939V10.5902H26.5002L26.4743 8.76017ZM25.0855 21.3499C24.5863 21.6806 23.9968 21.8484 23.3982 21.8301C23.002 21.8714 22.6016 21.8305 22.2219 21.7099C21.8422 21.5893 21.4915 21.3916 21.1918 21.1292C20.6388 20.5002 20.3505 19.6817 20.3871 18.8449H28.9792C29.0405 17.9734 28.9661 17.0977 28.7586 16.2491C28.5567 15.442 28.2044 14.6803 27.7203 14.0037C27.2314 13.3487 26.6016 12.8119 25.8772 12.4332C25.07 12.0369 24.1806 11.8368 23.2814 11.8492C22.4357 11.8437 21.5973 12.007 20.8154 12.3294C20.0994 12.6309 19.4508 13.0721 18.9075 13.6273C18.3655 14.1934 17.9458 14.8649 17.6745 15.6001C17.3834 16.3939 17.2383 17.2337 17.2462 18.0791C17.2322 18.9366 17.3729 19.7895 17.6615 20.5971C17.9074 21.3279 18.2956 22.0028 18.8037 22.5829C19.3305 23.1516 19.978 23.595 20.6986 23.8808C21.5021 24.1869 22.3568 24.3367 23.2165 24.3221C24.4228 24.3597 25.6138 24.0439 26.643 23.4135C27.6833 22.6756 28.4319 21.5963 28.7586 20.3635H25.8902C25.7367 20.7712 25.4541 21.1175 25.0855 21.3499ZM20.6337 16.0025C20.7347 15.6789 20.9024 15.3801 21.1259 15.1252C21.3495 14.8704 21.6239 14.6652 21.9316 14.5229C22.3394 14.3403 22.7829 14.2516 23.2295 14.2633C23.5522 14.2357 23.877 14.2783 24.1817 14.3881C24.4864 14.4979 24.7637 14.6722 24.9947 14.8993C25.4363 15.4388 25.7193 16.0903 25.8123 16.7812H20.426C20.447 16.5175 20.4949 16.2565 20.5688 16.0025H20.6337ZM13.7678 15.3795C14.4284 15.1044 15.0024 14.656 15.4291 14.0816C15.8229 13.4723 16.0179 12.7557 15.9872 12.0309C16.0117 11.3701 15.8829 10.7127 15.6108 10.11C15.3815 9.58813 15.0134 9.13919 14.5465 8.81209C14.0523 8.47056 13.49 8.2403 12.8982 8.13718C12.1984 7.98998 11.4846 7.92034 10.7696 7.92951H3.02112V24.2572H10.9383C11.6608 24.257 12.3804 24.1654 13.0799 23.9846C13.7424 23.8119 14.3702 23.5265 14.9359 23.141C15.4844 22.7628 15.9303 22.2544 16.2338 21.6614C16.5717 20.9993 16.7369 20.2627 16.714 19.5198C16.7386 18.5993 16.4804 17.6933 15.9742 16.924C15.4299 16.1503 14.6225 15.6013 13.7029 15.3795H13.7678ZM6.61632 10.72H9.97789C10.2868 10.7185 10.5952 10.7446 10.8994 10.7979C11.18 10.838 11.4495 10.9352 11.6911 11.0834C11.9252 11.2158 12.1149 11.4145 12.2363 11.6545C12.3878 11.9418 12.4595 12.2645 12.4439 12.589C12.4681 12.8684 12.4254 13.1495 12.3193 13.409C12.2132 13.6686 12.0468 13.8991 11.8339 14.0816C11.3694 14.4009 10.8136 14.5604 10.2505 14.5359H6.61632V10.72ZM12.8982 20.3764C12.7638 20.6402 12.5624 20.8641 12.3141 21.0254C12.0549 21.1866 11.7694 21.3008 11.4705 21.3628C11.1384 21.4376 10.7985 21.4724 10.4581 21.4667H6.5644V16.9889H10.4581C11.1263 16.9596 11.7862 17.1462 12.3401 17.521C12.5903 17.7456 12.7842 18.026 12.906 18.3394C13.0277 18.6528 13.074 18.9905 13.041 19.3251C13.0746 19.6819 13.0258 20.0416 12.8982 20.3764Z" fill="#C7C7C7"/>
</svg>
