<svg width="14" height="17" viewBox="0 0 14 17" fill="none" xmlns="http://www.w3.org/2000/svg">
<path d="M3.30554 10.8611C3.18029 10.8611 3.06018 10.8114 2.97162 10.7228C2.88306 10.6343 2.83331 10.5142 2.83331 10.3889C2.83331 10.2637 2.88306 10.1436 2.97162 10.055C3.06018 9.96644 3.18029 9.91669 3.30554 9.91669H9.91665C10.0419 9.91669 10.162 9.96644 10.2506 10.055C10.3391 10.1436 10.3889 10.2637 10.3889 10.3889C10.3889 10.5142 10.3391 10.6343 10.2506 10.7228C10.162 10.8114 10.0419 10.8611 9.91665 10.8611H3.30554ZM3.30554 13.2222C3.18029 13.2222 3.06018 13.1725 2.97162 13.0839C2.88306 12.9954 2.83331 12.8753 2.83331 12.75C2.83331 12.6248 2.88306 12.5047 2.97162 12.4161C3.06018 12.3275 3.18029 12.2778 3.30554 12.2778H9.91665C10.0419 12.2778 10.162 12.3275 10.2506 12.4161C10.3391 12.5047 10.3889 12.6248 10.3889 12.75C10.3889 12.8753 10.3391 12.9954 10.2506 13.0839C10.162 13.1725 10.0419 13.2222 9.91665 13.2222H3.30554Z" fill="#F9F9F9"/>
<path fill-rule="evenodd" clip-rule="evenodd" d="M7.73028 1.31978e-07H1.41667C1.04094 1.31978e-07 0.680609 0.149256 0.414932 0.414932C0.149256 0.680609 0 1.04094 0 1.41667V15.5833C0 15.9591 0.149256 16.3194 0.414932 16.5851C0.680609 16.8507 1.04094 17 1.41667 17H11.8056C12.1813 17 12.5416 16.8507 12.8073 16.5851C13.073 16.3194 13.2222 15.9591 13.2222 15.5833V5.85744C13.2221 5.50278 13.089 5.16105 12.8492 4.89978L8.77483 0.459C8.64206 0.31426 8.48063 0.198712 8.30081 0.119694C8.12098 0.040676 7.9267 -8.4647e-05 7.73028 1.31978e-07ZM0.944444 1.41667C0.944444 1.29143 0.994196 1.17131 1.08276 1.08276C1.17131 0.994196 1.29143 0.944445 1.41667 0.944445H7.73028C7.7958 0.944373 7.86063 0.957938 7.92063 0.984279C7.98062 1.01062 8.03448 1.04916 8.07878 1.09744L12.1531 5.53822C12.2332 5.62526 12.2777 5.73918 12.2778 5.85744V15.5833C12.2778 15.7086 12.228 15.8287 12.1395 15.9172C12.0509 16.0058 11.9308 16.0556 11.8056 16.0556H1.41667C1.29143 16.0556 1.17131 16.0058 1.08276 15.9172C0.994196 15.8287 0.944444 15.7086 0.944444 15.5833V1.41667Z" fill="#F9F9F9"/>
<path d="M8.02777 1.03888V5.47777H12.4667" stroke="#F9F9F9" stroke-width="0.944444" stroke-linecap="round" stroke-linejoin="round"/>
<path d="M4.84876 4.84786C4.98363 4.85199 5.11796 4.82899 5.24377 4.78023C5.36958 4.73147 5.48432 4.65794 5.58119 4.564C5.67805 4.47006 5.75506 4.35762 5.80764 4.23336C5.86023 4.1091 5.88733 3.97554 5.88733 3.84061C5.88733 3.70568 5.86023 3.57212 5.80764 3.44785C5.75506 3.32359 5.67805 3.21116 5.58119 3.11722C5.48432 3.02328 5.36958 2.94975 5.24377 2.90099C5.11796 2.85222 4.98363 2.82923 4.84876 2.83336C4.58696 2.84138 4.33857 2.95101 4.15622 3.13903C3.97387 3.32705 3.87189 3.57868 3.87189 3.84061C3.87189 4.10253 3.97387 4.35416 4.15622 4.54218C4.33857 4.73021 4.58696 4.83984 4.84876 4.84786Z" fill="#F9F9F9"/>
<path fill-rule="evenodd" clip-rule="evenodd" d="M6.86231 7.03047C6.86231 5.95947 5.96037 5.18408 4.84781 5.18408C3.73526 5.18408 2.83331 5.95853 2.83331 7.03047V7.5348C2.83356 7.62381 2.8691 7.70909 2.93212 7.77194C2.99515 7.83479 3.08053 7.87008 3.16954 7.87008H6.52704C6.61588 7.86983 6.70101 7.83443 6.76384 7.77161C6.82666 7.70878 6.86206 7.62365 6.86231 7.5348V7.03047Z" fill="#F9F9F9"/>
</svg>
