<svg width="31" height="31" viewBox="0 0 31 31" fill="none" xmlns="http://www.w3.org/2000/svg">
<path d="M10.1953 7.65865C10.1951 8.21499 9.97379 8.74843 9.5802 9.14162C9.18662 9.53482 8.65296 9.75555 8.09662 9.75528C7.54028 9.755 7.00684 9.53373 6.61365 9.14014C6.22046 8.74655 5.99972 8.21289 6 7.65656C6.00028 7.10022 6.22155 6.56678 6.61513 6.17359C7.00872 5.7804 7.54238 5.55966 8.09872 5.55994C8.65505 5.56021 9.18849 5.78149 9.58169 6.17507C9.97488 6.56866 10.1956 7.10232 10.1953 7.65865ZM10.2583 11.3086H6.06293V24.44H10.2583V11.3086ZM16.8869 11.3086H12.7125V24.44H16.845V17.5492C16.845 13.7104 21.8479 13.3538 21.8479 17.5492V24.44H25.9908V16.1228C25.9908 9.65144 18.586 9.89267 16.845 13.0706L16.8869 11.3086Z" fill="#C7C7C7"/>
</svg>
