<svg width="10" height="10" viewBox="0 0 10 10" fill="none" xmlns="http://www.w3.org/2000/svg">
<path d="M7.65625 0H2.34375C1.04933 0 0 1.04933 0 2.34375V7.65625C0 8.95067 1.04933 10 2.34375 10H7.65625C8.95067 10 10 8.95067 10 7.65625V2.34375C10 1.04933 8.95067 0 7.65625 0Z" fill="#F0DB4F"/>
<path d="M2.62943 8.3566L3.39467 7.89348C3.54232 8.15523 3.67662 8.37672 3.99877 8.37672C4.30756 8.37672 4.50225 8.25594 4.50225 7.78609V4.59086H5.44201V7.79938C5.44201 8.7727 4.87146 9.21574 4.03904 9.21574C3.28729 9.21574 2.85092 8.82641 2.62939 8.35652M5.95244 8.2559L6.7176 7.81289C6.91904 8.14184 7.18084 8.38348 7.64397 8.38348C8.03338 8.38348 8.28166 8.18879 8.28166 7.92027C8.28166 7.59809 8.02658 7.48395 7.59697 7.29605L7.36209 7.19531C6.68408 6.90672 6.23432 6.54422 6.23432 5.77898C6.23432 5.07414 6.77135 4.53711 7.61045 4.53711C8.20787 4.53711 8.63748 4.74523 8.94623 5.28895L8.21455 5.75883C8.05342 5.4702 7.87896 5.35609 7.61045 5.35609C7.33522 5.35609 7.16068 5.53063 7.16068 5.75883C7.16068 6.04074 7.33521 6.15488 7.73795 6.32945L7.97287 6.43012C8.77166 6.7725 9.22143 7.12148 9.22143 7.90684C9.22143 8.7527 8.55689 9.21582 7.66412 9.21582C6.7915 9.21582 6.22764 8.79965 5.95244 8.2559Z" fill="#323330"/>
</svg>
