<svg width="10" height="11" viewBox="0 0 10 11" fill="none" xmlns="http://www.w3.org/2000/svg">
<path d="M0.34375 9.96143V5.49268C0.34375 3.2145 2.19057 1.36768 4.46875 1.36768C6.74692 1.36768 8.59375 3.2145 8.59375 5.49268C8.59375 7.77085 6.74692 9.61768 4.46875 9.61768H4.125" stroke="#2563EB" stroke-width="0.6875"/>
<path d="M1.71881 9.96143V5.54768C1.71881 3.9985 2.95003 2.74268 4.46881 2.74268C5.9876 2.74268 7.21881 3.9985 7.21881 5.54768C7.21881 7.09683 5.9876 8.35268 4.46881 8.35268H4.12506" stroke="#2563EB" stroke-width="0.6875"/>
<path d="M4.46899 7.21875C5.41823 7.21875 6.18774 6.44924 6.18774 5.5C6.18774 4.55076 5.41823 3.78125 4.46899 3.78125C3.51975 3.78125 2.75024 4.55076 2.75024 5.5C2.75024 6.44924 3.51975 7.21875 4.46899 7.21875Z" fill="#2563EB"/>
</svg>
