<svg width="17" height="17" viewBox="0 0 17 17" fill="none" xmlns="http://www.w3.org/2000/svg">
<path d="M10.625 1.0625V7.4375L15.9375 4.25L10.625 1.0625Z" fill="#F9F9F9"/>
<path d="M14.875 7.4375V11.6875H2.125V3.1875H7.4375V2.125H2.125C1.84321 2.125 1.57296 2.23694 1.3737 2.4362C1.17444 2.63546 1.0625 2.90571 1.0625 3.1875V11.6875C1.0625 11.9693 1.17444 12.2395 1.3737 12.4388C1.57296 12.6381 1.84321 12.75 2.125 12.75H6.375V14.875H4.25V15.9375H12.75V14.875H10.625V12.75H14.875C15.1568 12.75 15.427 12.6381 15.6263 12.4388C15.8256 12.2395 15.9375 11.9693 15.9375 11.6875V7.4375H14.875ZM9.5625 14.875H7.4375V12.75H9.5625V14.875Z" fill="#F9F9F9"/>
</svg>
