<svg width="17" height="14" viewBox="0 0 17 14" fill="none" xmlns="http://www.w3.org/2000/svg">
<path d="M2.86834 0.558289H13.8533C14.5257 0.558289 15.1705 0.825368 15.6459 1.30077C16.1213 1.77618 16.3883 2.42096 16.3883 3.09329V10.6983C16.3883 11.3706 16.1213 12.0154 15.6459 12.4908C15.1705 12.9662 14.5257 13.2333 13.8533 13.2333H2.86834C2.19602 13.2333 1.55123 12.9662 1.07583 12.4908C0.600423 12.0154 0.333344 11.3706 0.333344 10.6983V3.09329C0.333344 2.42096 0.600423 1.77618 1.07583 1.30077C1.55123 0.825368 2.19602 0.558289 2.86834 0.558289ZM2.86834 1.40329C2.44584 1.40329 2.07404 1.54694 1.78674 1.80044L8.36084 6.05079L14.9349 1.80044C14.6476 1.54694 14.2758 1.40329 13.8533 1.40329H2.86834ZM8.36084 7.07324L1.28819 2.48489C1.22059 2.67079 1.17834 2.88204 1.17834 3.09329V10.6983C1.17834 11.1465 1.3564 11.5764 1.67333 11.8933C1.99027 12.2102 2.42013 12.3883 2.86834 12.3883H13.8533C14.3016 12.3883 14.7314 12.2102 15.0484 11.8933C15.3653 11.5764 15.5433 11.1465 15.5433 10.6983V3.09329C15.5433 2.88204 15.5011 2.67079 15.4335 2.48489L8.36084 7.07324Z" fill="#F9F9F9"/>
</svg>
