<svg width="20" height="20" viewBox="0 0 20 20" fill="none" xmlns="http://www.w3.org/2000/svg">
<path d="M4.19534 2.65865C4.19506 3.21499 3.97379 3.74843 3.5802 4.14162C3.18662 4.53482 2.65296 4.75555 2.09662 4.75528C1.54028 4.755 1.00684 4.53373 0.613652 4.14014C0.220459 3.74655 -0.000277906 3.21289 2.62588e-07 2.65656C0.000278431 2.10022 0.221549 1.56678 0.615135 1.17359C1.00872 0.780395 1.54238 0.559659 2.09872 0.559937C2.65505 0.560215 3.18849 0.781485 3.58169 1.17507C3.97488 1.56866 4.19562 2.10232 4.19534 2.65865ZM4.25827 6.3086H0.0629303V19.44H4.25827V6.3086ZM10.8869 6.3086H6.71254V19.44H10.845V12.5492C10.845 8.71043 15.8479 8.35383 15.8479 12.5492V19.44H19.9908V11.1228C19.9908 4.65144 12.586 4.89267 10.845 8.07064L10.8869 6.3086Z" fill="#C7C7C7"/>
</svg>
