<svg width="22" height="21" viewBox="0 0 22 21" fill="none" xmlns="http://www.w3.org/2000/svg">
<path d="M11.0004 2.69023e-09C8.38832 -5.71206e-05 5.86149 0.909588 3.87205 2.56615C1.88261 4.22272 0.560401 6.51809 0.142037 9.04151C-0.276328 11.5649 0.236454 14.1517 1.58862 16.3389C2.94078 18.5262 5.04409 20.1711 7.52214 20.9794C8.07214 21.0742 8.27784 20.7512 8.27784 20.468C8.27784 20.2129 8.26464 19.3645 8.26464 18.4634C5.50032 18.9608 4.78531 17.8035 4.56531 17.1984C4.32111 16.6094 3.93414 16.0873 3.4378 15.6772C3.0528 15.4759 2.50279 14.9774 3.4235 14.9645C3.7754 15.0017 4.11294 15.1214 4.40746 15.3135C4.70199 15.5056 4.94481 15.7645 5.11531 16.068C5.26572 16.3325 5.46797 16.5654 5.71049 16.7532C5.95301 16.9411 6.23102 17.0802 6.52859 17.1628C6.82616 17.2453 7.13744 17.2695 7.44459 17.234C7.75175 17.1986 8.04874 17.1042 8.31854 16.9562C8.36579 16.4085 8.61528 15.8964 9.02035 15.5157C6.57283 15.2466 4.01531 14.3186 4.01531 10.2006C4.00062 9.13065 4.40392 8.09554 5.14282 7.30678C4.80722 6.37675 4.84656 5.35647 5.25282 4.45383C5.25282 4.45383 6.17352 4.17177 8.27784 5.55733C10.0778 5.07297 11.9779 5.07297 13.7779 5.55733C15.8811 4.15777 16.8029 4.45383 16.8029 4.45383C17.2092 5.35647 17.2485 6.37675 16.9129 7.30678C17.6547 8.09377 18.0585 9.13006 18.0404 10.2006C18.0404 14.3315 15.4686 15.2466 13.0222 15.5157C13.2844 15.7763 13.4863 16.089 13.6142 16.4327C13.7421 16.7763 13.7931 17.1428 13.7636 17.5074C13.7636 18.9479 13.7504 20.1052 13.7504 20.468C13.7504 20.7512 13.9561 21.0871 14.5061 20.9794C16.9796 20.1644 19.0766 18.5155 20.4229 16.3272C21.7691 14.1389 22.2769 11.5536 21.8557 9.03275C21.4344 6.5119 20.1115 4.2196 18.1232 2.56505C16.1348 0.9105 13.6103 0.00138886 11.0004 2.69023e-09Z" fill="#C7C7C7"/>
</svg>
