<svg width="15" height="15" viewBox="0 0 15 15" fill="none" xmlns="http://www.w3.org/2000/svg">
<path d="M12.3867 2.25104C11.7509 1.60908 10.9938 1.10008 10.1593 0.753687C9.32489 0.407295 8.42985 0.230443 7.52638 0.233436C3.74078 0.233436 0.655442 3.31877 0.655442 7.10437C0.655442 8.31771 0.974376 9.49638 1.57064 10.5364L0.599976 14.1001L4.23998 13.1433C5.24531 13.691 6.37545 13.9822 7.52638 13.9822C11.312 13.9822 14.3973 10.8969 14.3973 7.11131C14.3973 5.27397 13.6832 3.54757 12.3867 2.25104ZM7.52638 12.8174C6.50025 12.8174 5.49491 12.5401 4.61438 12.0201L4.40638 11.8953L2.24318 12.4638L2.81864 10.3561L2.67998 10.1412C2.10974 9.23087 1.80702 8.17854 1.80638 7.10437C1.80638 3.95664 4.37171 1.3913 7.51945 1.3913C9.04478 1.3913 10.48 1.98757 11.5547 3.06917C12.0869 3.59878 12.5086 4.2288 12.7955 4.92268C13.0823 5.61656 13.2285 6.36049 13.2256 7.11131C13.2395 10.259 10.6741 12.8174 7.52638 12.8174ZM10.6602 8.54651C10.4869 8.46331 9.64105 8.04731 9.48851 7.98491C9.32905 7.92944 9.21811 7.90171 9.10025 8.06811C8.98238 8.24144 8.65651 8.62971 8.55945 8.74064C8.46238 8.85851 8.35838 8.87237 8.18505 8.78224C8.01171 8.69904 7.45705 8.51184 6.80531 7.92944C6.29225 7.47184 5.95251 6.91024 5.84851 6.73691C5.75145 6.56357 5.83465 6.47344 5.92478 6.38331C6.00105 6.30704 6.09811 6.18224 6.18131 6.08517C6.26451 5.98811 6.29918 5.91184 6.35465 5.80091C6.41011 5.68304 6.38238 5.58597 6.34078 5.50277C6.29918 5.41957 5.95251 4.57371 5.81385 4.22704C5.67518 3.89424 5.52958 3.93584 5.42558 3.9289H5.09278C4.97491 3.9289 4.79464 3.9705 4.63518 4.14384C4.48264 4.31717 4.03891 4.73317 4.03891 5.57904C4.03891 6.42491 4.65598 7.24304 4.73918 7.35397C4.82238 7.47184 5.95251 9.20517 7.67198 9.94704C8.08105 10.1273 8.39998 10.2313 8.64958 10.3076C9.05865 10.4393 9.43305 10.4185 9.73118 10.3769C10.064 10.3284 10.7504 9.96091 10.889 9.55877C11.0346 9.15664 11.0346 8.81691 10.9861 8.74064C10.9376 8.66437 10.8336 8.62971 10.6602 8.54651Z" fill="#5FD663"/>
</svg>
