<svg width="26" height="18" viewBox="0 0 26 18" fill="none" xmlns="http://www.w3.org/2000/svg">
<path d="M23.4743 1.76017H16.8939V3.59022H23.5002L23.4743 1.76017ZM22.0855 14.3499C21.5863 14.6806 20.9968 14.8484 20.3982 14.8301C20.002 14.8714 19.6016 14.8305 19.2219 14.7099C18.8422 14.5893 18.4915 14.3916 18.1918 14.1292C17.6388 13.5002 17.3505 12.6817 17.3871 11.8449H25.9792C26.0405 10.9734 25.9661 10.0977 25.7586 9.24909C25.5567 8.44203 25.2044 7.68027 24.7203 7.00371C24.2314 6.34867 23.6016 5.81195 22.8772 5.43325C22.07 5.0369 21.1806 4.83678 20.2814 4.84919C19.4357 4.84369 18.5973 5.00695 17.8154 5.32941C17.0994 5.63086 16.4508 6.07211 15.9075 6.62732C15.3655 7.19336 14.9458 7.86489 14.6745 8.60014C14.3834 9.39387 14.2383 10.2337 14.2462 11.0791C14.2322 11.9366 14.3729 12.7895 14.6615 13.5971C14.9074 14.3279 15.2956 15.0028 15.8037 15.5829C16.3305 16.1516 16.978 16.595 17.6986 16.8808C18.5021 17.1869 19.3568 17.3367 20.2165 17.3221C21.4228 17.3597 22.6138 17.0439 23.643 16.4135C24.6833 15.6756 25.4319 14.5963 25.7586 13.3635H22.8902C22.7367 13.7712 22.4541 14.1175 22.0855 14.3499ZM17.6337 9.00249C17.7347 8.6789 17.9024 8.38005 18.1259 8.12521C18.3495 7.87037 18.6239 7.66519 18.9316 7.52287C19.3394 7.34032 19.7829 7.25161 20.2295 7.26329C20.5522 7.23573 20.877 7.2783 21.1817 7.38808C21.4864 7.49785 21.7637 7.67224 21.9947 7.89927C22.4363 8.43875 22.7193 9.09029 22.8123 9.78123H17.426C17.447 9.51747 17.4949 9.25654 17.5688 9.00249H17.6337ZM10.7678 8.37949C11.4284 8.10442 12.0024 7.65598 12.4291 7.08159C12.8229 6.47227 13.0179 5.75575 12.9872 5.03089C13.0117 4.37012 12.8829 3.71266 12.6108 3.10999C12.3815 2.58813 12.0134 2.13919 11.5465 1.81209C11.0523 1.47056 10.49 1.2403 9.89818 1.13718C9.19844 0.989985 8.48461 0.920343 7.76962 0.929511H0.0211182V17.2572H7.93834C8.66083 17.257 9.38039 17.1654 10.0799 16.9846C10.7424 16.8119 11.3702 16.5265 11.9359 16.141C12.4844 15.7628 12.9303 15.2544 13.2338 14.6614C13.5717 13.9993 13.7369 13.2627 13.714 12.5198C13.7386 11.5993 13.4804 10.6933 12.9742 9.924C12.4299 9.15035 11.6225 8.60133 10.7029 8.37949H10.7678ZM3.61632 3.72001H6.97789C7.28677 3.7185 7.59516 3.74456 7.89941 3.79788C8.18004 3.83803 8.44948 3.9352 8.69113 4.08342C8.9252 4.21583 9.11487 4.41453 9.23625 4.6545C9.38776 4.94184 9.45947 5.26453 9.44392 5.58899C9.4681 5.86835 9.42538 6.14945 9.3193 6.40901C9.21321 6.66858 9.04682 6.89913 8.8339 7.08159C8.3694 7.40091 7.81359 7.56037 7.25045 7.53585H3.61632V3.72001ZM9.89818 13.3764C9.7638 13.6402 9.56237 13.8641 9.31412 14.0254C9.05494 14.1866 8.76935 14.3008 8.47049 14.3628C8.13836 14.4376 7.7985 14.4724 7.45812 14.4667H3.5644V9.9889H7.45812C8.1263 9.95964 8.78616 10.1462 9.34008 10.521C9.59033 10.7456 9.78419 11.026 9.90595 11.3394C10.0277 11.6528 10.074 11.9905 10.041 12.3251C10.0746 12.6819 10.0258 13.0416 9.89818 13.3764Z" fill="#C7C7C7"/>
</svg>
