<svg width="9" height="9" viewBox="0 0 9 9" fill="none" xmlns="http://www.w3.org/2000/svg">
<path d="M4 1.5C4.13261 1.5 4.25979 1.55268 4.35355 1.64645C4.44732 1.74021 4.5 1.86739 4.5 2C4.5 2.13261 4.44732 2.25979 4.35355 2.35355C4.25979 2.44732 4.13261 2.5 4 2.5H1V8H6.5V5C6.5 4.86739 6.55268 4.74021 6.64645 4.64645C6.74021 4.55268 6.86739 4.5 7 4.5C7.13261 4.5 7.25979 4.55268 7.35355 4.64645C7.44732 4.74021 7.5 4.86739 7.5 5V8C7.5 8.26522 7.39464 8.51957 7.20711 8.70711C7.01957 8.89464 6.76522 9 6.5 9H1C0.734784 9 0.48043 8.89464 0.292893 8.70711C0.105357 8.51957 0 8.26522 0 8V2.5C0 2.23478 0.105357 1.98043 0.292893 1.79289C0.48043 1.60536 0.734784 1.5 1 1.5H4ZM8.5 0C8.63261 0 8.75979 0.0526784 8.85355 0.146447C8.94732 0.240215 9 0.367392 9 0.5V3C9 3.13261 8.94732 3.25979 8.85355 3.35355C8.75979 3.44732 8.63261 3.5 8.5 3.5C8.36739 3.5 8.24021 3.44732 8.14645 3.35355C8.05268 3.25979 8 3.13261 8 3V1.707L3.8535 5.8535C3.7592 5.94458 3.6329 5.99498 3.5018 5.99384C3.3707 5.9927 3.24529 5.94011 3.15259 5.84741C3.05989 5.75471 3.0073 5.6293 3.00616 5.4982C3.00502 5.3671 3.05542 5.2408 3.1465 5.1465L7.293 1H6C5.86739 1 5.74021 0.947321 5.64645 0.853553C5.55268 0.759785 5.5 0.632608 5.5 0.5C5.5 0.367392 5.55268 0.240215 5.64645 0.146447C5.74021 0.0526784 5.86739 0 6 0H8.5Z" fill="#444444"/>
</svg>
